<svg xmlns="http://www.w3.org/2000/svg">
  <symbol id="fb" viewBox="56.519 48.996 15 28">
    <path d="M68.181,55.188c1.026,0.029,1.993,0,2.681-0.3c0.391-0.818,0.556-1.854,0.619-2.989 c-0.19-0.015-0.062-0.337-0.207-0.399c-0.029-0.202-0.278-0.195-0.309-0.398c-0.277-0.165-0.457-0.422-0.723-0.598 c-0.727-0.162-1.44-0.335-2.164-0.499c-0.849,0.044-1.895-0.103-2.58,0.1c-2.619-0.04-3.997,1.12-5.259,2.392 c-0.023,0.078-0.003,0.197-0.105,0.199c-0.574,1.587-0.125,3.621-0.204,5.581c0.099,0.436,0.107,0.958,0.204,1.395 c-0.998,0.296-2.212,0.387-3.402,0.499c-0.317,0.324-0.178,1.089-0.206,1.693c0.085,0.583,0.278,1.06,0.413,1.595 c0.211,0.193,0.596,0.396,0.825,0.498c0.065,0.029,0.071,0.082,0.103,0.1c0.506,0.268,1.451,0.008,2.268,0.1 c-0.136,1.978,0.256,3.915,0,5.68c0.007,0.327,0.295,0.382,0.208,0.798c-0.001,0.963-0.067,1.99,0.208,2.69 c-0.287,0.455-0.497,0.982-0.415,1.794c0.122,0.016,0.114,0.157,0.105,0.299c-0.075,0.47,0.643,0.175,0.515,0.698 c0.162,0.456-0.428,0.184-0.413,0.498v0.896c0.53,0.285,1.462,0.182,2.268,0.199c0.908-0.419,2.188-0.479,2.785-1.196 c0.459,0.235,0.916-0.014,1.238-0.199c-0.018-0.315,0.273-0.333,0.205-0.698c-0.004-0.328-0.173-0.496-0.103-0.896V71.83 c-0.206-2.293-0.048-4.938-0.309-7.176c0.888-0.105,1.917-0.075,2.578-0.398c0.357-0.451,0.377-1.23,0.516-1.895 c0.177-0.226,0.221-0.583,0.206-0.996c0.19-0.213,0.068-0.729,0.104-1.096c-0.141-0.595-0.168-1.3-0.825-1.39 c-0.884-0.235-2.043,0.595-2.991,0.299c0.049-1.134-0.293-2.342,0-3.388C66.761,55.609,67.461,55.39,68.181,55.188z M64.363,59.971c0.117,0.254,0.254,0.486,0.414,0.698c0.079,0.022,0.203,0.003,0.205,0.101c1.192,0.056,2.199-0.069,3.096-0.299 c0,0.998-0.271,1.733-0.518,2.492c-0.662,0.045-1.467,0.3-1.958,0.198c-0.276,0.165-0.372,0.506-0.62,0.698 c-0.049,0.441,0.142,0.495,0,0.797c-0.201,0.137-0.055,0.611-0.205,0.796v1.496c0.085,0.281-0.146,0.258-0.104,0.497v3.488 c-0.085,0.281,0.146,0.258,0.104,0.498v2.989c0.063,0.271-0.132,0.791,0.103,0.896c-0.07,0.364-0.412-0.021-0.824,0.1 c-0.528,0.122-0.926,0.369-1.548,0.4c0.117-0.353,0.32-0.622,0.311-1.097c0.049-0.381-0.365-0.312-0.516-0.49 c0.193-0.644,0.562-1.117,0.722-1.793c0.197-0.515,0.714-1.298,0.31-1.794c-0.522-0.105-0.521,0.293-0.826,0.398 c-0.022,0.077-0.002,0.196-0.103,0.199c-0.023,0.077-0.003,0.196-0.103,0.199c0.01,0.12-0.151,0.062,0,0 c0.022-0.078,0.002-0.197,0.103-0.199c0.023-0.077,0.002-0.197,0.103-0.199v-0.299c0.368-0.575,0.67-1.214,0.826-1.993 c0.191-0.28,0.283-0.656,0.412-0.997c0.156-0.262,0.34-0.869,0.104-1.195c-0.517,0.033-0.796,0.295-0.93,0.697 c-0.32-0.189,0.161-0.434,0.104-0.697c0.138-0.231,0.169-0.566,0.309-0.797c0.202-0.413,0.564-1.304,0-1.596 c-0.438-0.023-0.612,0.207-0.723,0.498c-0.214,0.191-0.43,0.383-0.516,0.698c-0.373-0.07-0.143-0.727-0.206-1.097 c-0.067-0.52,0.122-0.899,0-1.195c-0.56-0.799-2.026-0.105-3.197-0.299c-0.108-0.307-0.222-0.984-0.104-1.195 c1.045-0.088,2.479,0.201,3.197-0.199c0.024-0.078,0.003-0.197,0.104-0.199c0.094-0.723-0.271-1-0.515-1.396 c0.232-0.806,0.04-2.02,0.104-2.989c0.233-0.141,0.328-0.414,0.515-0.598c0.112-0.955,0.673-1.476,0.722-2.49 c-0.273,0.001-0.607-0.055-0.619,0.199c-0.302-0.114-0.382,0.479-0.515,0.199c-0.112-0.541,0.246-0.626,0.309-0.997 c0.599-0.418,1.212-0.82,1.856-1.195c1.741-0.244,4.648-0.449,6.086,0.198c0.051,0.616-0.287,0.854-0.207,1.496h-1.546 c-1.092,0.24-1.987,0.672-2.991,0.997c-0.24,0.066-0.276,0.331-0.516,0.398c-0.036,0.396-0.225,0.646-0.311,0.996 C64.182,57.424,64.394,58.582,64.363,59.971z"/>
  </symbol>

  <symbol id="inst" viewBox="53.115 53.19 22 21">
    <path d="M74.881 65.336c-.013-2.395-.344-4.788-.303-7.135a37.854 37.854 0 0 0-.152-2.278c-.105-.3-.111-.699-.152-1.062-.26-.17-.222-.64-.456-.835-.423-.233-1.201-.114-1.744-.22-.657-.026-1.254-.115-1.899-.153-1.936-.101-3.973-.076-5.996-.076-2.001 0-3.954-.145-5.695-.379h-2.202c-.097.004-.105.098-.227.076-.599.034-1.077.188-1.595.303-.21.119-.421.235-.683.304-.136.192-.513.145-.607.379-.186.212.185.451 0 .607v.911c.173.13.027.58.075.835v.987c-.017 1.281.134 2.397.076 3.72.467 2.762.374 6.537.076 9.413.155.579.363 1.105.455 1.746.256.479.335 1.133.683 1.52.502.206 1.233.186 1.898.229.383.098.667.293 1.14.3 2.843-.21 5.496-.154 8.427-.229 2.704.24 5.802.188 8.275-.228.195-.134.128-.529.228-.76-.056-.385.207-.449.228-.759.131-2.395.164-4.789.15-7.216zm-12.982-6.225c.757-.153 1.48-.341 2.429-.304.71.076 1.287.283 1.897.456.116.184-.243.547.153.684v.076c.059.017.149.002.151.076.445.035.794.167 1.063.379.45.055.536.476 1.138.3-.091.213-.084.524-.075.835.324 1.183.475 2.81.303 4.252-.164.163-.215.442-.303.683-.311.322-.481.785-.836 1.062-.095.236-.25.408-.454.533-.116.213-.206.452-.457.53-.298.163-.577.011-.834-.076-.446.162-.904.312-1.215.607-.816-.096-1.648-.175-2.43-.304-.242-.139-.487-.273-.835-.305a1.997 1.997 0 0 0-.836-.455c-.101-.127-.337-.118-.455-.229-.198-.029-.229-.227-.456-.229-.118-.412-.443-.618-.532-1.062-.226-.331-.308-.805-.455-1.215-.043-1.434.091-2.692.379-3.796.346-.591.779-1.094 1.138-1.67.249.021.365-.09.38-.304.306.053.434-.072.684-.075.257.008.269-.309.458-.449zm-1.67-2.733c-.117-.263-.066-.691-.075-1.062-.007-.285.278-.279.304-.532-.003-.074-.093-.059-.152-.076.126-.146.701-.097.834 0 .132.537-.354.455-.531.684.011.167.322.032.456.076.029.854-.059 1.496 0 2.202h-.456c-.007.234.229.226.456.228-.059.286.092.363.075.607-.226.153-.716.042-1.062.075-.103-.594.235-1.375.151-2.202zm-.683-1.594c.088-.013.134.016.151.076.179.253.01.683-.076.911-.173-.179-.026-.682-.075-.987zm.152 1.822c-.132-.069-.168-.237-.152-.456.132.071.167.238.152.456zm0 1.367c-.058.139-.082-.045-.076-.152.058-.139.081.045.076.152zm-.152.228c.175-.024.084.219.228.227-.009.193-.283.179-.38.077.039-.112.113-.193.152-.304zm-2.354-1.216c.006-.108.013-.214-.076-.228-.073-.733.13-1.415 0-1.973.25-.155.769-.042 1.139-.077v1.139c-.088.064-.203.101-.379.077-.054.28.324.131.379.304.008.853-.056 1.777.152 2.429-.565-.059-.906.107-1.442.076.097-.612-.019-1.435.531-1.594-.012-.141-.257-.047-.304-.153zm-.531 0c-.204.021-.217-.534-.077-.607.328.006.249.501.077.607zm-.152.988c.077-.312.034-.304.075-.683.228.013.26.77-.075.683zm.228-2.05c-.263.054-.273-.266-.153-.38.263-.053.272.267.153.38zm0-1.139c.033.159-.052.201-.076.304-.176.023-.084-.219-.229-.229.025-.102.191-.062.305-.075zm-.228 3.721c.148-.031.11.345-.076.227a.363.363 0 0 0 .076-.227zm-.684-3.721c.029.259-.438.32-.379 0h.379zm-.987.076c-.034.219-.326.179-.379.379-.214-.17.084-.468.379-.379zm-.455.759c.226-.205.451-.41.684-.607-.021-.123.071-.131.076-.228h.229c.102.381-.261.296-.305.531.021.122-.072.131-.075.227.02.335.121.588.075.988-.27.008-.276.28-.607.227.022-.428-.135-.674-.077-1.138zm.076 3.265V57.29c.195-.185.396-.364.607-.532.295.489.179 1.392.455 1.897-.275.157-.75.111-1.062.229zM72.68 69.968c-.109.954-.158 1.968-.379 2.809-2.89.123-6.02.005-8.883.153-.199.045-.273-.031-.229-.229-.253 0-.258.247-.531.229.201-.336.438-.898.151-1.291-.797.013-.797.821-1.138 1.291-.686-.053-1.137.127-1.823.075.18-.705.75-1.021.911-1.745-.395-.55-.989.138-1.214.455-.204.48-.557.81-.76 1.29H57.8c.238-.469.489-.926.759-1.366.171-.512.625-.741.683-1.367-.157-.28-.42-.029-.683 0-.123.182-.272.335-.38.531-.232.376-.501.714-.684 1.14-.181.208-.335.003-.53.227-.389.271-.581.736-.988.987-.174-.06.039-.356.153-.38.045-.181-.096-.55.075-.607.063-.366.212-.647.379-.91.119-.742.521-1.199.684-1.898-.559.099-.674.643-.988.987-.212.445-.542.772-.683 1.291-.174-.131-.028-.58-.076-.836.122-.586.298-1.119.38-1.746.133-.22.173-.535.228-.834.168-.209.046-.61-.077-.761-.226.027-.374.133-.455.304-.192-.032-.193.506-.304.304-.045-2.587-.451-4.812-.456-7.438.026-.331-.183-.424-.228-.685 1.629.028 3.121.091 4.783.229-.089.139-.199.257-.304.379-.144.07-.226.173-.378.304-.604 1.653-.975 3.984-.607 6.15.229.58.589 1.029.986 1.441.907.485 1.635 1.149 2.506 1.671 1.701.361 3.84.369 5.541 0 .236-.12.484-.226.685-.38 1.364-1.242 2.753-2.459 2.961-4.859v-1.367c-.197-1.598-.688-2.905-1.747-3.644.331-.22 1.099.043 1.67.076.223.013.447.014.684 0 .408-.024.928-.055 1.443 0 .144.187.113.544.228.76-.062 1.684-.192 3.3-.152 5.087.103.454.127.986.229 1.441-.091.973-.237 1.89-.457 2.732zm.379-11.16c-.639-.12-1.232-.284-1.897-.379.072-.333.799-.01.987-.228.385-.223.295-.92.304-1.51.032-.348.114-.644.076-1.063-.401-.951-1.783-.421-2.886-.455-.225.718-.47 1.8-.304 2.657.169.49 1.024.292 1.519.456-.14.332-.688.057-.987.076-.296-.083-.707-.052-.986-.151-2.285.078-4.284.004-6.529.151.117-1.248.063-2.465-.076-3.645h3.112c-.344.364-.912.507-1.29.835-.44.244-.861.505-1.139.911.249.134.535-.245.759-.379.355-.074.479-.381.835-.455.423-.438 1.096-.625 1.67-.912.378-.022.697.013.987.077 1.283.007 2.456.126 3.796.076.614.145 1.45.069 1.974.304.107.298.231.579.305.911.008.986-.149 1.816-.23 2.723zm-5.845-3.72c.11-.047-.009-.092 0 0zm0 0c-.529.154-1.019.348-1.367.682.484-.198 1.059-.306 1.367-.682zm1.062.607c.111-.047-.007-.091 0 0zm-1.746.911c.727-.158 1.181-.591 1.746-.911-.437.019-.592.32-.987.379-.215.217-.6.26-.759.532zm-.683-.835c-.111.047.007.092 0 0zm-.683.607c.11-.046-.008-.092 0 0zm-.075.076c.063.014.07-.03.075-.076-.064-.014-.072.03-.075.076zm-.077.076c.064.014.072-.03.077-.076-.067-.013-.072.029-.077.076zm-.834.608c.346-.134.613-.348.834-.607a2.018 2.018 0 0 0-.834.607zm2.276.987c.533-.049.749-.416 1.215-.531.284-.298.784-.381.987-.76-.56.023-.766.399-1.216.531-.284.297-.751.413-.986.76zm-2.276-.987c-.317-.074-.016.227 0 0zm-.533.379c.021.021.115-.037.076-.077-.021-.02-.116.038-.076.077zm2.809.608c-.11.047.007.091 0 0zm-1.14 1.821c-.223-.231-.676-.233-.986-.379-.697-.038-1.223.093-1.746.229-.304.151-.607.304-.91.454-.266.166-.444.417-.76.532-.205.225-.352.51-.684.607-.004.223-.173.281-.304.379-.089.115-.094.312-.227.381-.007.12.036.29-.076.303.108 1.512.291 2.948.683 4.177.287.623.975.846 1.442 1.29.589.297 1.328.444 2.126.531.277-.052.553-.105.911-.076a5.088 5.088 0 0 0 2.81-1.441c.1-.281.252-.508.455-.684-.254-.671.293-1.098.455-1.59.002-1.344-.201-2.48-.607-3.415-.256-.579-.92-.751-1.366-1.139-.059-.018-.15-.003-.151-.077-.269-.136-.733-.239-1.065-.082zm-3.415 4.327c-.113-.063-.109-.244-.152-.379.256-.078.118.237.152.379zm.076.305c.041-.117.079-.006.076.075-.04.118-.079.005-.076-.075zm.456-2.051c.015-.086.075-.042.075 0-.014.087-.075.043-.075 0zm1.67-2.125c-.203.258.041.576.077.836-.305-.039-.574-.887-.077-.836zm.379 3.948c-.04-.038.055-.097.076-.076.04.038-.054.097-.076.076zm.759 2.884c.034-.109.066.008.152 0-.018.097-.15.077-.152 0zm2.201-2.581c-.233-.057-.145.208-.379.152.069-.159.118-.338.229-.455.134.019.172.13.15.303zm-1.137-3.796c.211.119.441.217.606.381.085.219.243.363.38.529.058.778.179 1.492.151 2.354-.257.099-.438.271-.683.381-.78-.006-1.358-.212-1.897-.456-.171-.259-.355-.505-.532-.759v-1.062c.17-.185.319-.391.456-.607.228-.127.508-.201.454-.607-.038-.062-.078-.124-.075-.229.158.045.245.159.379.229.323.017.41-.2.761-.154z"/>
  </symbol>

  <symbol id="tw" viewBox="52.253 53.771 23 20">
    <path d="M75.706 57.855c-.227-.366-.909-.277-1.407-.371h-1.112c.142-.353.343-.646.52-.963.056-.438.254-.734.223-1.26.129-.167.176-.417.296-.593.104-.144.242-.477.074-.667-.051-.221-.295-.249-.593-.222a.515.515 0 0 0-.222.148c-.448.433-.778 1.014-1.261 1.408-.009.008-.062 0-.074 0-.087.005-.033.046-.075.074-.146.098-.257.152-.369.223-.284.176-.547.445-.891.519-.529-.211-1.156-.326-1.852-.37-1.157.102-2.303.215-3.038.741-.911.35-1.477 1.042-2.149 1.63-.049.32-.342.398-.37.741-.005.045-.012.088-.073.074.043.241-.051.345-.074.519-.001.133.199.431 0 .52-.822-.12-1.485-.63-2.149-.964-.718-.36-1.468-.604-2.074-1.111-.716-.322-1.26-.816-1.778-1.334-.208-.312-.542-.496-.667-.89-.379-.164-.175-.912-.741-.889-.315-.043-.345.199-.444.37-.07.227-.361.232-.371.519-.004.046-.011.088-.074.075-.17 1.089-.527 1.992-.519 3.26.129.415.35.738.593 1.038-.418.051-.716.222-.89.519-.06 1.073.378 1.647.742 2.297.134.384.352.685.593.963.017.229.206.288.296.445.019.105.123.125.149.223-.04.105.289.18.073.221-.413.131-1.016.07-1.259.371-.109.279-.109.833 0 1.111.034.237.282.262.296.519.499.417 1.082.747 1.631 1.112.574.166 1.211.271 1.852.37-.102.343-.338.551-.593.741-.78.381-1.849.474-2.742.74-.555.038-.956.23-1.556.223-.333.127-.854.075-1.112.223-.122.068-.102.096-.222.221-.134.412.111.74.444.89-.005.253.219.276.371.371.089.183.254.29.445.37.544.468 1.268.759 1.927 1.112.83.183 1.648.376 2.52.519.896.116 1.901.124 2.816.222h.963c.511.132 1.23.054 1.853.074.095-.102.322-.073.519-.074.522-.269 1.196-.385 1.631-.74.574-.241.989-.642 1.557-.89.866-.765 1.937-1.324 2.519-2.37.205-.189.351-.438.445-.74.265-.156.385-.454.593-.667.404-.41.706-.924 1.037-1.4.319-.496.576-1.054.89-1.556-.01-.405.306-.484.296-.89.193-.226.177-.662.371-.88-.033-.255.029-.415.074-.594.047-1.281-.047-2.422-.297-3.407.588-.155 1.181-.302 1.631-.593.52-.206.993-.603.808-1.281zm-3.408 4.076c-.153.859-.615 1.41-1.038 2.001.059.379-.104.538-.073.889a4.303 4.303 0 0 0-.371 1.037c-.203.267-.332.606-.519.89-.366.548-.777 1.051-1.186 1.557-.378.56-.912.965-1.334 1.481-.42.493-.942.885-1.407 1.334-.474.17-.89.396-1.26.667a5.06 5.06 0 0 0-.667.296c-.177.146-.499.145-.668.29-1.086.147-2.3.17-3.555.148-1.031-.105-2.115-.159-3.039-.371-.922-.189-1.511-.712-2.297-1.037.153-.242.634-.154.963-.222.031-.166.394-.003.444-.149.257.06.285-.109.52-.07.563-.201 1.23-.302 1.705-.593.282-.138.406-.434.667-.593.033-.189.104-.341.222-.444.047-.275.201-.441.148-.815.111-.21.299-.343.296-.667-.074-.147-.128-.316-.296-.371-.026-.196-.377-.067-.444-.222-.255.032-.416-.029-.593-.075-.154-.043-.487.092-.519-.073-.842-.023-1.3-.43-1.853-.74.431-.262 1.032-.353 1.333-.742.516-.076 1.058-.129 1.112-.666 0-.717-.771-.661-1.333-.815-.773-.66-1.194-1.672-1.779-2.52.238-.157.564-.226.741-.444.454.058.54-.251.667-.52.019-.488-.333-.605-.593-.815a3.49 3.49 0 0 1-.667-.74c-.003-.818-.021-1.652.074-2.372.063-.014.07.029.074.074.227.441.559.775.815 1.186.532.357.925.853 1.556 1.112.452.413 1.108.621 1.557 1.038.601.263 1.158.57 1.704.889.669.194 1.056.673 2.001.593.198-.098.394-.199.593-.297.258-.456-.059-1.079.147-1.63.255-.659.797-1.031 1.26-1.481.29-.155.555-.335.815-.519.347-.098.675-.216.964-.37a6.223 6.223 0 0 0 1.037-.148h1.26c.244.052.475.119.74.148.209.137.38.313.666.371.789.693 1.271 1.696 1.409 3.039-.122.484.053.873.001 1.481zm.296-5.632c-.129.34-.23.707-.593.815-.017-.105-.122-.125-.147-.222-.012-.209.209-.186.296-.296.162-.085.245-.248.444-.297-.007-.09.108-.046 0 0zm-5.484 3.038c.163.135.284.31.519.371.101.221.314.327.594.37.047-.15.346-.049.37-.222.174-.023.166-.229.296-.297-.018-.55-.129-1.006-.37-1.333-.758-.423-1.676.039-1.409 1.111z"/>
  </symbol>

  <symbol id="logo-academy" viewBox="0 0 27 34">
    <path d="M13.62.017L13.472 0 0 1.412v24.661l13.473 8.017 13.43-7.99.042-.025V1.412L13.62.017zm11.399 12.11L13.495 5.334l-.001-.104-.087.05-.088-.056v.109L1.925 12.118V3.147l11.548-1.212L25.02 3.147v8.98zm-11.614-5.34L24.923 13.5l-4.479 2.64-7.093-4.221-.014 1.415 5.904 3.513-.86.507-5.03-2.992-.014 1.415 3.827 2.275-.782.523-3.031-1.787-.014 1.413 1.853 1.091-1.8 1.081-11.356-6.751 11.371-6.835zm-11.48 8.34l11.411 6.791.016 1.044-7.942-4.728-.015 1.416 7.979 4.795.018 1.076-7.973-4.74-.013 1.414 8.021 4.822.046.025 8.143-4.872-.011-5.177 3.415-2.036v10.021L13.472 31.85 1.925 24.979v-9.852z"/>
  </symbol>

  <symbol id="logo-footer" viewBox="0 0 102 34">
    <path d="M19.135 21.495c-.083-2.683-.51-5.347-.475-8.035.028-2.174.389-4.41-.36-6.495.047-.237.096-.473.14-.711.193-1.045-3.271-.492-3.813.464-.343.28-.519.615-.375.957.037.086.069.174.102.261-.656 3.204-1.57 6.306-2.621 9.412-.402 1.188-.888 2.349-1.298 3.533-.582-1.104-1.169-2.194-1.643-3.377-1.374-3.433-2.612-6.902-4.287-10.206.19-1.528-3.204-1.368-3.873.032-.809 1.694-.705 3.403-.438 5.214.3 2.042.353 4.05.377 6.111.047 3.976.358 7.943.417 11.919-.354.395-.461.881-.091 1.375.162.216.361.382.571.549.904.724 3.5.107 3.496-1.271-.014-4.123-.312-8.238-.42-12.358a98.054 98.054 0 0 1-.024-1.21l.171.434c.64 1.604 1.31 3.163 2.185 4.654.868 1.478 1.303 3.064 1.803 4.677-.189.217-.303.462-.233.708-.039.18.07.292.251.36.639.548 1.841.274 2.509-.007a6.07 6.07 0 0 0 .826-.424c.345-.212.883-.679.729-1.159l-.087-.279c.47-1.27.709-2.589.965-3.93.272-1.428.782-2.78 1.295-4.133.052.619.106 1.238.156 1.855.204 2.554.033 5.072.007 7.626-.008.847.054 1.633.219 2.461.068.343.367 1.808.281 1.887-.611.564-.433 1.257.385 1.437.915.201 2.081-.105 2.77-.742 1.198-1.106.632-2.845.361-4.241-.452-2.342.095-4.964.022-7.348zM27.499 22.17c-.074-1.988-.765-3.862-.774-5.872-.011-2.305.181-4.593-.155-6.886-.106-.725-4.056.1-3.917 1.05.309 2.11.197 4.229.159 6.354-.037 2.044.468 3.898.73 5.904.269 2.054-.084 4.157.149 6.213.109.962.75 2.743.089 3.58-.42.532 1.469.342 1.553.326.769-.142 1.793-.392 2.304-1.038.653-.828.196-2.426.053-3.357-.316-2.059-.114-4.195-.191-6.274zM43.828 18.851c-2.062-2.784-5.889-.78-8.561-1.54-1.377-.392-1.395-2.271-1.392-3.396.004-1.426-.114-2.732-.273-4.146-.119-1.052-.024-2.121.746-2.904.142-.144.859-.336.81-.339a8.132 8.132 0 0 1 1.067-.093c1.549-.066 4.613.232 4.019 2.483-.266 1.01 3.596.431 3.877-.637 1.213-4.598-7.284-3.714-9.686-3.078-2.21.588-4.648 1.846-4.775 4.399-.061 1.219.273 2.379.325 3.587.061 1.39-.198 2.776.289 4.118 1.082 2.982 5.52 1.576 7.778 1.745 3.845.287 2.697 5.469 2.748 7.883.027 1.288 1.181 3.429.211 4.507-.595.662-1.982.699-2.792.768-.813.068-2.201.312-2.742-.461-.993-1.418.091-3.799-.121-5.425-.121-.924-4.066-.095-3.917 1.05.342 2.627-1.399 6.145 2.402 6.596 2.441.289 5.191-.161 7.5-.928 1.196-.396 2.307-.942 3.243-1.793 1.035-.941.694-2.348.417-3.547-.677-2.918.731-6.279-1.173-8.849zM61.155 18.662c-.122-3.777-.69-7.513-.706-11.297-.008-1.971-3.963-1.305-3.957.343.015 3.608.497 7.167.682 10.764l.013.221c-1.949-.018-3.899.177-5.853.246.201-4.633-.611-9.227-.435-13.857.022-.582-3.874-.09-3.917 1.049-.171 4.475.587 8.915.453 13.392-.064 2.136-.245 4.264-.259 6.402-.007 1.095.171 2.183.329 3.263.146.999.484 2.331.182 3.318-.237.772 3.561.29 3.862-.694.544-1.778-.222-4.039-.405-5.839-.175-1.725-.039-3.499.083-5.248 2.03-.13 4.059-.297 6.08-.012.09 1.378.196 2.754.322 4.134a45.83 45.83 0 0 1 .196 3.475c.015 1.019.142 2.496-.221 3.461-.773 2.057 3.15 1.889 3.723.364.703-1.87.502-4.199.383-6.164-.148-2.443-.477-4.874-.555-7.321zM78.087 23.136c-.939-2.758-2.373-5.177-3.616-7.797 1.001-1.949 2.018-3.898 2.932-5.888.831-1.808 1.446-3.819 3.08-5.092.574-.447.55-.896-.255-.951-.875-.061-2.064.192-2.77.742-1.485 1.158-2.427 2.563-3.201 4.268a160.304 160.304 0 0 1-2.914 6.075l-.224.443c-.49.315-.785.762-.639 1.266-.792 1.563-1.6 3.117-2.499 4.61-.299-5.534-.955-11.061-1.15-16.6-.045-1.27-3.971-.479-3.917 1.049.243 6.868 1.219 13.719 1.286 20.587l-.047.051c-.301.308-.19.494.051.602a60.756 60.756 0 0 1-.209 5.254c-.472.745.463 1.139 1.084 1.139h.096c.739 0 2.626-.35 2.718-1.364.191-2.1.251-4.196.232-6.291 1.59-1.715 2.89-3.63 4.055-5.635.759 1.48 1.482 2.972 1.989 4.582.861 2.741 2.299 5.261 3.131 8.014.544 1.806 4.457.738 3.917-1.049-.829-2.753-2.204-5.297-3.13-8.015zM101.59 18.501c-.21-.832-1.372-.849-2.271-.77-.012-.335-.02-.671-.036-1.006-.125-2.661-.165-5.379-.392-8.032-.209-2.458-1.585-3.337-3.972-3.247-2.416.092-5.229.527-7.482 1.403-2.607 1.014-4.058 2.935-4.559 5.681-.549 3.014.24 6.219.373 9.246.154 3.503.066 7.014.062 10.519 0 .573 3.916.031 3.917-1.049.003-2.776.042-5.551 0-8.327a52.196 52.196 0 0 0-.102-2.444c1.369-.593 3.687.012 5.05.141 1.107.104 2.169-.166 3.244-.292.021 2.312.107 4.635.202 6.944.049 1.184.477 3.53-.354 4.511-.437.516 1.48.343 1.555.33.793-.146 1.761-.401 2.303-1.041.949-1.12.456-3.79.401-5.126-.078-1.91-.102-3.824-.141-5.737 1.154-.147 2.417-.854 2.202-1.704zm-14.618-.15c-.103-1.245-.217-2.49-.303-3.743-.16-2.331.117-5.583 2.29-6.999.58-.379 1.675-.315 2.354-.438.97-.176 1.956-.389 2.829.19 1.21.802.912 3.657.911 4.869-.003 2.005.207 4.001.31 6.003-.552.055-1.111.089-1.683.076-2.286-.053-4.544-.413-6.708.042zM24.108 6.7a3.157 3.157 0 0 0 1.477-.524l.256-.216c.52-.335.972-.827.728-1.361-.504-1.105-.423-2.231-.416-3.414.006-.958-.963-1.246-1.781-1.174-.723.063-2.168.581-2.175 1.52-.006.993-.071 2.016.109 2.992-.047.113-.074.239-.104.355-.055.212.016.42.142.59l.002.134.015.335a.901.901 0 0 0 .429.53c.388.233.878.275 1.318.233z"/>
  </symbol>

  <symbol id="icon-search" viewBox="-0.8 -0.8 18 18">
    <path d="M16.47,14.93l-3.415-3.415C14.02,10.226,14.6,8.634,14.6,6.899c0-4.253-3.447-7.699-7.7-7.699 S-0.8,2.646-0.8,6.899s3.446,7.7,7.699,7.7c1.734,0,3.326-0.58,4.613-1.546l3.417,3.416c0.203,0.202,0.418,0.33,0.771,0.33 c0.607,0,1.1-0.492,1.1-1.1C16.8,15.459,16.739,15.2,16.47,14.93z M1.399,6.899c0-3.038,2.462-5.5,5.5-5.5s5.5,2.462,5.5,5.5 s-2.462,5.5-5.5,5.5S1.399,9.938,1.399,6.899z"/>
  </symbol>

  <symbol id="icon-cart" viewBox="264.205 370.961 20 19">
    <path d="M283.75,378.19h-3.151l-3.407-6.814c-0.185-0.37-0.634-0.52-1.006-0.335 c-0.371,0.186-0.521,0.636-0.335,1.006l3.071,6.143h-9.138l3.072-6.143c0.185-0.371,0.035-0.821-0.335-1.006 c-0.37-0.185-0.821-0.035-1.006,0.335l-3.407,6.814h-3.151c-0.414,0-0.75,0.336-0.75,0.75s0.336,0.75,0.75,0.75h0.157l0.855,2.991 c-0.187,0.137-0.316,0.347-0.316,0.595c0,0.396,0.309,0.71,0.697,0.739l1.656,5.795h12.697l1.656-5.795 c0.388-0.028,0.698-0.344,0.698-0.739c0-0.249-0.129-0.459-0.316-0.596l0.854-2.991h0.157c0.414,0,0.75-0.336,0.75-0.75 S284.164,378.19,283.75,378.19z M279.569,388.311h-10.433l-1.224-4.284h12.881L279.569,388.311z M281.222,382.526h-13.739 l-0.81-2.836h15.359L281.222,382.526z"/>
  </symbol>

  <symbol id="icon-interior" viewBox="-259.404 -19.675 40 62">
    <path d="M-244.227,18.283c-0.286,0.966-0.245,2.191,0.027,3.639c0.494,2.635,1.687,6.041,2.358,9.67h5.062 c0.696-3.641,1.949-7.05,2.471-9.683c0.287-1.445,0.33-2.66,0.041-3.617c-0.275-0.899-0.89-1.618-2.021-2.303h-5.997 C-243.361,16.668-243.96,17.38-244.227,18.283z"/>
    <path d="M-232.395,38.278h-13.799c-1.293,0-2.299,0.976-2.299,2.229v2.229h2.299h13.799h2.299v-2.229 C-230.096,39.254-231.102,38.278-232.395,38.278z"/>
    <path d="M-225.262-17.446h-11.732c0-1.244-1.015-2.229-2.3-2.229c-1.283,0-2.3,0.985-2.3,2.229h-11.737l-6.073,25.517 c0.794-0.461,1.589-0.992,2.632-0.992c1.359,0,2.243,0.818,2.924,1.375c0.682,0.557,1.162,0.849,1.447,0.849 c0.292,0.001,0.769-0.287,1.451-0.836c0.681-0.548,1.564-1.358,2.915-1.358c1.349,0,2.237,0.806,2.919,1.354 c0.684,0.549,1.161,0.84,1.451,0.84c0.146,0,0.338-0.073,0.58-0.214c0.242-0.141,0.53-0.353,0.872-0.626 c0.512-0.411,1.139-0.967,1.99-1.218c0.284-0.085,0.593-0.136,0.93-0.136c1.347,0,2.238,0.805,2.92,1.354 c0.683,0.548,1.159,0.84,1.451,0.84c0.287-0.002,0.766-0.296,1.445-0.85c0.684-0.554,1.571-1.367,2.925-1.367 c1.356,0,2.239,0.817,2.919,1.371c0.342,0.276,0.631,0.489,0.872,0.631c0.24,0.143,0.431,0.214,0.575,0.214 c0.288,0,0.762-0.293,1.442-0.854c0.68-0.559,1.567-1.384,2.929-1.384c1.044,0,1.839,0.533,2.632,0.997L-225.262-17.446z"/>
    <path d="M-235.881,33.82h-6.864c-0.657,0-1.15,0.479-1.15,1.115c0,0.635,0.493,1.113,1.15,1.113h6.9c0.655,0,1.15-0.479,1.15-1.113 c0-0.636-0.495-1.115-1.15-1.115H-235.881z"/>
    <path d="M-239.295,9.336c-0.146,0-0.338,0.074-0.58,0.213c-0.157,0.094-0.37,0.261-0.57,0.41v3.731h2.299V9.959 C-238.651,9.581-239.054,9.336-239.295,9.336z"/>
  </symbol>

  <symbol id="icon-toy" viewBox="226.001 226.19 60 60">
    <path d="M226.001,269.871l27.438,15.934v-23.346l-27.438-15.94V269.871z M277.347,238.627v2.453 c0,1.817-3.458,3.29-7.73,3.29c-4.266,0-7.727-1.473-7.727-3.29v-4.059h0.024c0.26,1.714,3.604,3.073,7.702,3.073 c4.272,0,7.729-1.474,7.729-3.285c0-1.819-3.457-3.289-7.729-3.289c-0.339,0-0.675,0.01-1.002,0.03l-4.975-2.888v3.086 c0,1.817-3.454,3.29-7.723,3.29c-2.683,0-5.045-0.583-6.433-1.467c-0.196-0.203-0.439-0.401-0.732-0.586 c-0.363-0.381-0.565-0.797-0.565-1.236v-2.986l-4.807,2.792c-0.347-0.017-0.696-0.033-1.054-0.033c-4.267,0-7.727,1.469-7.727,3.289 c0,1.811,3.46,3.285,7.727,3.285c4.099,0,7.446-1.358,7.705-3.073h0.022v4.059c0,1.817-3.455,3.29-7.727,3.29 c-4.267,0-7.727-1.473-7.727-3.29v-2.42l-5.952,3.452l27.531,15.986l27.351-15.882L277.347,238.627z M263.703,248.793 c0,1.817-3.46,3.287-7.727,3.287c-4.269,0-7.729-1.47-7.729-3.287v-4.059h0.024c0.26,1.715,3.603,3.076,7.705,3.076 c4.101,0,7.443-1.361,7.705-3.076h0.021V248.793L263.703,248.793z M258.558,262.666v23.144L286,269.871v-23.144L258.558,262.666z  M255.917,232.762c4.269,0,7.723-1.47,7.723-3.286c0-1.814-3.454-3.287-7.723-3.287c-4.27,0-7.729,1.472-7.729,3.287 C248.187,231.292,251.647,232.762,255.917,232.762"/>
  </symbol>

  <symbol id="bg-zigzag-line" viewBox="0 0 1150 23">
    <path fill="#E6E7E8" d="M1150 23c-9.017 0-13.728-4.589-17.514-8.276-3.412-3.323-5.877-5.724-11.234-5.724-5.358 0-7.823 2.401-11.235 5.724-3.786 3.688-8.497 8.276-17.514 8.276s-13.728-4.589-17.514-8.276c-3.412-3.323-5.877-5.724-11.234-5.724s-7.822 2.401-11.234 5.724c-3.786 3.688-8.497 8.276-17.514 8.276s-13.729-4.589-17.515-8.276C1014.08 11.401 1011.615 9 1006.257 9c-5.357 0-7.822 2.401-11.234 5.724-3.787 3.687-8.498 8.276-17.514 8.276s-13.728-4.589-17.514-8.276C956.583 11.401 954.118 9 948.761 9s-7.822 2.401-11.234 5.724C933.74 18.411 929.028 23 920.012 23s-13.729-4.589-17.515-8.276C899.085 11.401 896.62 9 891.263 9s-7.822 2.401-11.234 5.724C876.242 18.411 871.53 23 862.514 23s-13.729-4.589-17.515-8.276C841.587 11.401 839.122 9 833.764 9c-5.355 0-7.82 2.4-11.231 5.723-3.786 3.688-8.497 8.277-17.512 8.277-9.017 0-13.729-4.589-17.515-8.276C784.094 11.401 781.629 9 776.271 9c-5.356 0-7.821 2.401-11.232 5.723-3.786 3.688-8.497 8.277-17.513 8.277-9.017 0-13.729-4.589-17.514-8.277C726.602 11.401 724.137 9 718.779 9s-7.821 2.401-11.233 5.723C703.761 18.411 699.049 23 690.032 23c-9.016 0-13.727-4.589-17.512-8.276C669.109 11.401 666.645 9 661.287 9s-7.822 2.401-11.234 5.724C646.267 18.411 641.556 23 632.539 23s-13.729-4.589-17.515-8.276C611.612 11.401 609.147 9 603.788 9c-5.357 0-7.822 2.401-11.234 5.724C588.768 18.411 584.057 23 575.04 23c-9.016 0-13.728-4.589-17.514-8.276C554.115 11.401 551.65 9 546.292 9s-7.823 2.401-11.234 5.724C531.272 18.411 526.561 23 517.544 23s-13.729-4.589-17.514-8.276C496.619 11.401 494.153 9 488.796 9c-5.358 0-7.823 2.401-11.235 5.724-3.787 3.687-8.499 8.276-17.515 8.276-9.017 0-13.729-4.589-17.516-8.276C439.118 11.401 436.653 9 431.293 9c-5.358 0-7.823 2.401-11.235 5.724C416.272 18.411 411.56 23 402.543 23s-13.729-4.589-17.515-8.276C381.616 11.401 379.151 9 373.792 9c-5.358 0-7.823 2.401-11.235 5.724-3.786 3.687-8.498 8.276-17.515 8.276s-13.729-4.589-17.515-8.276C324.114 11.401 321.649 9 316.291 9s-7.824 2.401-11.236 5.724C301.269 18.411 296.556 23 287.539 23c-9.018 0-13.729-4.589-17.516-8.276C266.611 11.401 264.145 9 258.786 9c-5.357 0-7.822 2.401-11.234 5.724-3.785 3.687-8.497 8.276-17.513 8.276-9.017 0-13.729-4.589-17.515-8.276C209.112 11.401 206.647 9 201.289 9s-7.824 2.401-11.236 5.724C186.267 18.411 181.555 23 172.538 23c-9.018 0-13.73-4.589-17.517-8.276C151.609 11.401 149.144 9 143.784 9s-7.825 2.401-11.238 5.724c-3.787 3.687-8.5 8.276-17.517 8.276-9.018 0-13.73-4.589-17.517-8.276C94.099 11.401 91.633 9 86.273 9s-7.826 2.401-11.239 5.724C71.249 18.411 66.536 23 57.518 23 48.5 23 43.787 18.412 40 14.724 36.586 11.401 34.12 9 28.759 9s-7.827 2.401-11.24 5.724C13.732 18.411 9.019 23 0 23v-9c5.361 0 7.827-2.401 11.241-5.724C15.028 4.588 19.741 0 28.759 0S42.49 4.588 46.278 8.276C49.691 11.599 52.157 14 57.518 14c5.36 0 7.825-2.401 11.238-5.724C72.543 4.589 77.255 0 86.273 0s13.73 4.589 17.517 8.276c3.413 3.323 5.879 5.724 11.239 5.724s7.826-2.401 11.238-5.724C130.054 4.589 134.767 0 143.784 0s13.73 4.589 17.517 8.276c3.412 3.323 5.878 5.724 11.237 5.724 5.358 0 7.824-2.401 11.236-5.724C187.56 4.589 192.272 0 201.289 0c9.017 0 13.729 4.589 17.515 8.276 3.412 3.323 5.877 5.724 11.235 5.724 5.357 0 7.822-2.401 11.234-5.724C245.059 4.589 249.77 0 258.786 0c9.017 0 13.729 4.589 17.516 8.276C279.714 11.599 282.18 14 287.539 14s7.824-2.401 11.236-5.724C302.562 4.589 307.274 0 316.291 0c9.017 0 13.729 4.589 17.515 8.276 3.412 3.323 5.877 5.724 11.236 5.724 5.359 0 7.824-2.401 11.236-5.724C360.063 4.589 364.775 0 373.792 0s13.729 4.589 17.516 8.276C394.72 11.599 397.185 14 402.543 14s7.823-2.401 11.235-5.724C417.565 4.589 422.277 0 431.293 0c9.018 0 13.729 4.589 17.516 8.276 3.412 3.323 5.877 5.724 11.236 5.724 5.358 0 7.823-2.401 11.235-5.724C475.067 4.589 479.779 0 488.796 0c9.016 0 13.728 4.589 17.514 8.276 3.412 3.323 5.877 5.724 11.235 5.724 5.357 0 7.822-2.401 11.234-5.724C532.564 4.589 537.275 0 546.292 0c9.016 0 13.728 4.589 17.514 8.276C567.217 11.599 569.682 14 575.04 14c5.357 0 7.822-2.401 11.234-5.724C590.061 4.589 594.771 0 603.788 0c9.018 0 13.729 4.589 17.516 8.276 3.412 3.323 5.877 5.724 11.235 5.724 5.357 0 7.822-2.401 11.234-5.724C647.56 4.589 652.271 0 661.287 0s13.728 4.589 17.513 8.277C682.211 11.6 684.676 14 690.032 14c5.357 0 7.822-2.401 11.234-5.724C705.052 4.589 709.764 0 718.779 0s13.728 4.589 17.513 8.276c3.412 3.323 5.877 5.724 11.234 5.724 5.356 0 7.821-2.401 11.232-5.723C762.544 4.589 767.255 0 776.271 0c9.017 0 13.729 4.589 17.515 8.276 3.412 3.323 5.877 5.724 11.235 5.724 5.356 0 7.821-2.401 11.232-5.724C820.038 4.589 824.749 0 833.764 0c9.017 0 13.729 4.589 17.515 8.276C854.69 11.599 857.155 14 862.514 14s7.823-2.401 11.235-5.724C877.535 4.589 882.247 0 891.263 0c9.017 0 13.728 4.589 17.514 8.276 3.412 3.323 5.877 5.724 11.235 5.724s7.823-2.401 11.235-5.724C935.033 4.589 939.744 0 948.761 0s13.728 4.589 17.514 8.276c3.412 3.323 5.877 5.724 11.234 5.724s7.822-2.401 11.234-5.724C992.529 4.589 997.24 0 1006.257 0s13.729 4.589 17.515 8.276c3.412 3.323 5.877 5.724 11.235 5.724 5.357 0 7.822-2.401 11.234-5.724 3.786-3.688 8.497-8.276 17.514-8.276s13.728 4.589 17.514 8.276c3.412 3.323 5.877 5.724 11.234 5.724s7.822-2.401 11.234-5.724c3.786-3.688 8.498-8.276 17.515-8.276s13.728 4.589 17.514 8.276C1142.178 11.599 1144.643 14 1150 14v9z"/>
  </symbol>

  <symbol id="bg-zigzag-fill" viewBox="0 0 1150 34">
    <path fill="#FFFFFF" d="M1121.252,0c-14.375,0-14.375,14-28.749,14s-14.374-14-28.748-14s-14.374,14-28.748,14 c-14.375,0-14.375-14-28.75-14c-14.374,0-14.374,14-28.748,14S963.135,0,948.761,0s-14.374,14-28.749,14S905.637,0,891.263,0 s-14.374,14-28.749,14s-14.375-14-28.75-14c-14.371,0-14.371,14-28.743,14c-14.375,0-14.375-14-28.75-14 c-14.372,0-14.372,14-28.744,14c-14.374,0-14.374-14-28.747-14s-14.373,14-28.747,14C675.66,14,675.66,0,661.287,0 c-14.374,0-14.374,14-28.748,14c-14.375,0-14.375-14-28.751-14c-14.374,0-14.374,14-28.748,14S560.666,0,546.292,0 s-14.374,14-28.748,14C503.17,14,503.17,0,488.796,0c-14.375,0-14.375,14-28.75,14C445.67,14,445.67,0,431.293,0 c-14.375,0-14.375,14-28.75,14c-14.375,0-14.375-14-28.751-14c-14.375,0-14.375,14-28.75,14S330.666,0,316.291,0 s-14.375,14-28.751,14c-14.376,0-14.376-14-28.753-14c-14.374,0-14.374,14-28.747,14c-14.375,0-14.375-14-28.75-14 c-14.375,0-14.375,14-28.751,14c-14.377,0-14.377-14-28.754-14c-14.377,0-14.377,14-28.755,14c-14.378,0-14.378-14-28.756-14 S71.896,14,57.518,14C43.139,14,43.139,0,28.759,0S14.38,14,0,14v20h1150V14C1135.626,14,1135.626,0,1121.252,0z"/>
  </symbol>

  <symbol id="icon-phone" viewBox="0 0 25 24">
    <path d="M17.321,24.333c-0.371,0-0.744,0-1.115,0c-4.904-0.58-8.497-2.857-11.11-5.772C2.473,15.637,0.402,11.875,0,6.817 c0-0.453,0-0.906,0-1.358c0.091-0.921,0.544-1.55,1.067-2.086c0.65-0.666,1.63-1.522,2.522-1.553 c0.659-0.022,1.78,0.451,2.232,1.066c0.388,0.53,0.595,1.59,0.775,2.378c0.185,0.797,0.6,1.95,0.485,2.717 C6.905,9.177,5.317,9.684,4.85,10.553c1.551,3.721,4.089,6.456,7.472,8.345c0.847-0.465,1.595-1.864,2.767-1.892 c0.428-0.012,0.972,0.209,1.406,0.34c0.477,0.143,0.891,0.326,1.311,0.484c0.705,0.266,1.957,0.621,2.378,1.213 c0.433,0.61,0.681,1.608,0.581,2.231C20.571,22.508,18.538,23.877,17.321,24.333z"/>
    <path d="M12.529,1.528c5.949,0,10.771,4.822,10.771,10.771h1.529C24.829,5.507,19.323,0,12.529,0V1.528z"/>
    <path d="M12.529,9.327v1.552c0.785,0,1.421,0.636,1.421,1.42h1.553C15.502,10.657,14.172,9.327,12.529,9.327z"/>
    <path d="M12.529,6.246c3.345,0,6.056,2.71,6.056,6.054h1.588c0-4.22-3.422-7.641-7.644-7.641V6.246z"/>
  </symbol>

  <symbol id="icon-mail" viewBox="0 0 32 32">
    <path d="M28,5H4C1.791,5,0,6.792,0,9v13c0,2.209,1.791,4,4,4h24c2.209,0,4-1.791,4-4V9 C32,6.792,30.209,5,28,5z M2,10.25l6.999,5.25L2,20.75V10.25z M30,22c0,1.104-0.898,2-2,2H4c-1.103,0-2-0.896-2-2l7.832-5.875 l4.368,3.277c0.533,0.397,1.166,0.6,1.8,0.6c0.633,0,1.266-0.201,1.799-0.6l4.369-3.277L30,22L30,22z M30,20.75l-7-5.25l7-5.25 V20.75z M17.199,18.602c-0.35,0.263-0.763,0.4-1.199,0.4s-0.851-0.139-1.2-0.4L10.665,15.5l-0.833-0.625L2,9.001V9 c0-1.103,0.897-2,2-2h24c1.102,0,2,0.897,2,2L17.199,18.602z"/>
  </symbol>

  <symbol id="icon-left-arrow" viewBox="0 0 50 26">
    <polygon points="50,11.002 7.659,11.002 15.833,2.828 13.005,0 0,12.998 0.003,13.001 0,13.005 13.005,26.003 15.833,23.175 7.661,15.002 50,15.002 "/>
  </symbol>

  <symbol id="icon-right-arrow" viewBox="0 0 50 26">
    <polygon points="0,11.002 42.341,11.002 34.166,2.828 36.995,0 50,12.998 49.996,13.001 50,13.005 36.995,26.003 34.166,23.175 42.339,15.002 0,15.002 "/>
  </symbol>
</svg>
